<svg width="234" height="63" viewBox="0 0 234 63" fill="none" xmlns="http://www.w3.org/2000/svg">
<mask id="mask0_79_71" style="mask-type:alpha" maskUnits="userSpaceOnUse" x="0" y="0" width="234" height="63">
<rect y="0.520996" width="233.8" height="61.9786" fill="#D9D9D9"/>
</mask>
<g mask="url(#mask0_79_71)">
<path d="M1.8656 55.7117C1.34738 55.7117 0.906889 55.5303 0.544133 55.1675C0.181378 54.8048 0 54.3643 0 53.8461V2.3866C0 1.86837 0.181378 1.42789 0.544133 1.06513C0.906889 0.702375 1.34738 0.520996 1.8656 0.520996H8.31747C8.83569 0.520996 9.27618 0.702375 9.63893 1.06513C10.0017 1.42789 10.1831 1.86837 10.1831 2.3866V53.8461C10.1831 54.3643 10.0017 54.8048 9.63893 55.1675C9.27618 55.5303 8.83569 55.7117 8.31747 55.7117H1.8656Z" fill="#DAB108"/>
<path d="M38.7616 55.7117C35.6523 55.7117 33.0352 55.1675 30.9105 54.0793C28.7858 52.991 27.2053 51.3845 26.1688 49.2598C25.1324 47.0833 24.6141 44.3885 24.6141 41.1755V23.5301H18.4732C17.955 23.5301 17.5145 23.3487 17.1517 22.9859C16.789 22.6232 16.6076 22.1827 16.6076 21.6645V17.1559C16.6076 16.6377 16.789 16.1972 17.1517 15.8345C17.5145 15.4717 17.955 15.2903 18.4732 15.2903H24.6141V2.3866C24.6141 1.86837 24.7696 1.42789 25.0805 1.06513C25.4433 0.702375 25.9097 0.520996 26.4797 0.520996H32.7761C33.2944 0.520996 33.7348 0.702375 34.0976 1.06513C34.4604 1.42789 34.6417 1.86837 34.6417 2.3866V15.2903H44.3584C44.8766 15.2903 45.3171 15.4717 45.6799 15.8345C46.0426 16.1972 46.224 16.6377 46.224 17.1559V21.6645C46.224 22.1827 46.0426 22.6232 45.6799 22.9859C45.3171 23.3487 44.8766 23.5301 44.3584 23.5301H34.6417V40.3982C34.6417 42.5229 35.0045 44.1812 35.73 45.3731C36.5073 46.565 37.8288 47.161 39.6944 47.161H45.058C45.5762 47.161 46.0167 47.3424 46.3795 47.7051C46.7422 48.0679 46.9236 48.5084 46.9236 49.0266V53.8461C46.9236 54.3643 46.7422 54.8048 46.3795 55.1675C46.0167 55.5303 45.5762 55.7117 45.058 55.7117H38.7616Z" fill="#DAB108"/>
<path d="M55.7627 55.7117C55.2445 55.7117 54.804 55.5303 54.4413 55.1675C54.0785 54.8048 53.8971 54.3643 53.8971 53.8461V2.3866C53.8971 1.86837 54.0785 1.42789 54.4413 1.06513C54.804 0.702375 55.2445 0.520996 55.7627 0.520996H62.2146C62.7328 0.520996 63.1733 0.702375 63.5361 1.06513C63.8988 1.42789 64.0802 1.86837 64.0802 2.3866V53.8461C64.0802 54.3643 63.8988 54.8048 63.5361 55.1675C63.1733 55.5303 62.7328 55.7117 62.2146 55.7117H55.7627Z" fill="#DAB108"/>
<path d="M94.0203 55.7117C93.5021 55.7117 93.0616 55.5303 92.6988 55.1675C92.3361 54.8048 92.1547 54.3643 92.1547 53.8461V17.1559C92.1547 16.6377 92.3361 16.1972 92.6988 15.8345C93.0616 15.4717 93.5021 15.2903 94.0203 15.2903H100.083C100.602 15.2903 101.042 15.4717 101.405 15.8345C101.768 16.1972 101.949 16.6377 101.949 17.1559V19.7989C103.037 18.3478 104.488 17.13 106.302 16.1454C108.168 15.109 110.37 14.5648 112.909 14.513C118.817 14.4094 122.937 16.7154 125.269 21.4313C126.461 19.3584 128.171 17.7001 130.399 16.4563C132.68 15.1608 135.193 14.513 137.94 14.513C140.634 14.513 143.07 15.1349 145.247 16.3786C147.475 17.6223 149.211 19.5138 150.455 22.0531C151.75 24.5406 152.398 27.7017 152.398 31.5366V53.8461C152.398 54.3643 152.217 54.8048 151.854 55.1675C151.491 55.5303 151.051 55.7117 150.532 55.7117H144.158C143.64 55.7117 143.2 55.5303 142.837 55.1675C142.474 54.8048 142.293 54.3643 142.293 53.8461V32.1585C142.293 29.8265 141.956 27.9868 141.282 26.6394C140.608 25.2402 139.702 24.2556 138.561 23.6855C137.421 23.1155 136.152 22.8305 134.753 22.8305C133.612 22.8305 132.472 23.1155 131.332 23.6855C130.192 24.2556 129.259 25.2402 128.534 26.6394C127.808 27.9868 127.446 29.8265 127.446 32.1585V53.8461C127.446 54.3643 127.264 54.8048 126.901 55.1675C126.539 55.5303 126.098 55.7117 125.58 55.7117H119.206C118.636 55.7117 118.169 55.5303 117.807 55.1675C117.496 54.8048 117.34 54.3643 117.34 53.8461V32.1585C117.34 29.8265 116.978 27.9868 116.252 26.6394C115.527 25.2402 114.594 24.2556 113.454 23.6855C112.314 23.1155 111.096 22.8305 109.8 22.8305C108.608 22.8305 107.442 23.1414 106.302 23.7633C105.162 24.3333 104.229 25.292 103.504 26.6394C102.778 27.9868 102.415 29.8265 102.415 32.1585V53.8461C102.415 54.3643 102.234 54.8048 101.871 55.1675C101.509 55.5303 101.068 55.7117 100.55 55.7117H94.0203Z" fill="#DAB108"/>
<path d="M180.109 55.7117C176.999 55.7117 174.382 55.1675 172.258 54.0793C170.133 52.991 168.552 51.3845 167.516 49.2598C166.479 47.0833 165.961 44.3885 165.961 41.1755V23.5301H159.82C159.302 23.5301 158.862 23.3487 158.499 22.9859C158.136 22.6232 157.955 22.1827 157.955 21.6645V17.1559C157.955 16.6377 158.136 16.1972 158.499 15.8345C158.862 15.4717 159.302 15.2903 159.82 15.2903H165.961V2.3866C165.961 1.86837 166.117 1.42789 166.428 1.06513C166.79 0.702375 167.257 0.520996 167.827 0.520996H174.123C174.641 0.520996 175.082 0.702375 175.445 1.06513C175.807 1.42789 175.989 1.86837 175.989 2.3866V15.2903H185.706C186.224 15.2903 186.664 15.4717 187.027 15.8345C187.39 16.1972 187.571 16.6377 187.571 17.1559V21.6645C187.571 22.1827 187.39 22.6232 187.027 22.9859C186.664 23.3487 186.224 23.5301 185.706 23.5301H175.989V40.3982C175.989 42.5229 176.352 44.1812 177.077 45.3731C177.854 46.565 179.176 47.161 181.042 47.161H186.405C186.923 47.161 187.364 47.3424 187.727 47.7051C188.089 48.0679 188.271 48.5084 188.271 49.0266V53.8461C188.271 54.3643 188.089 54.8048 187.727 55.1675C187.364 55.5303 186.923 55.7117 186.405 55.7117H180.109Z" fill="#DAB108"/>
<path d="M197.032 55.7117C196.514 55.7117 196.073 55.5303 195.711 55.1675C195.348 54.8048 195.167 54.3643 195.167 53.8461V17.1559C195.167 16.6377 195.348 16.1972 195.711 15.8345C196.073 15.4717 196.514 15.2903 197.032 15.2903H203.406C203.924 15.2903 204.365 15.4717 204.728 15.8345C205.09 16.1972 205.272 16.6377 205.272 17.1559V20.343C206.619 18.6847 208.329 17.3114 210.402 16.2231C212.527 15.083 215.144 14.513 218.253 14.513C221.414 14.513 224.161 15.2385 226.493 16.6895C228.825 18.0887 230.613 20.0839 231.857 22.675C233.152 25.2661 233.8 28.3754 233.8 32.003V53.8461C233.8 54.3643 233.619 54.8048 233.256 55.1675C232.893 55.5303 232.453 55.7117 231.934 55.7117H225.094C224.576 55.7117 224.135 55.5303 223.772 55.1675C223.41 54.8048 223.228 54.3643 223.228 53.8461V32.4694C223.228 29.4637 222.477 27.1058 220.974 25.3957C219.523 23.6855 217.398 22.8305 214.6 22.8305C211.905 22.8305 209.754 23.6855 208.148 25.3957C206.542 27.1058 205.738 29.4637 205.738 32.4694V53.8461C205.738 54.3643 205.557 54.8048 205.194 55.1675C204.831 55.5303 204.391 55.7117 203.873 55.7117H197.032Z" fill="#DAB108"/>
<path d="M76.6149 49.2024C77.3341 48.1381 78.9013 48.1381 79.6205 49.2024L90.3109 65.0221C91.1249 66.2267 90.2619 67.8515 88.808 67.8515H67.4273C65.9735 67.8515 65.1105 66.2267 65.9245 65.0221L76.6149 49.2024Z" fill="white"/>
</g>
</svg>
