<svg width="234" height="63" viewBox="0 0 234 63" fill="none" xmlns="http://www.w3.org/2000/svg">
<mask id="mask0_79_60" style="mask-type:alpha" maskUnits="userSpaceOnUse" x="0" y="0" width="234" height="63">
<rect y="0.521423" width="233.8" height="61.9786" fill="#D9D9D9"/>
</mask>
<g mask="url(#mask0_79_60)">
<path d="M1.8656 55.7121C1.34738 55.7121 0.906889 55.5307 0.544133 55.168C0.181378 54.8052 0 54.3647 0 53.8465V2.38702C0 1.8688 0.181378 1.42831 0.544133 1.06556C0.906889 0.702802 1.34738 0.521423 1.8656 0.521423H8.31747C8.83569 0.521423 9.27618 0.702802 9.63893 1.06556C10.0017 1.42831 10.1831 1.8688 10.1831 2.38702V53.8465C10.1831 54.3647 10.0017 54.8052 9.63893 55.168C9.27618 55.5307 8.83569 55.7121 8.31747 55.7121H1.8656Z" fill="black"/>
<path d="M38.7616 55.7121C35.6523 55.7121 33.0352 55.168 30.9105 54.0797C28.7858 52.9914 27.2053 51.3849 26.1688 49.2602C25.1324 47.0837 24.6141 44.3889 24.6141 41.176V23.5305H18.4732C17.955 23.5305 17.5145 23.3491 17.1517 22.9864C16.789 22.6236 16.6076 22.1831 16.6076 21.6649V17.1564C16.6076 16.6381 16.789 16.1976 17.1517 15.8349C17.5145 15.4721 17.955 15.2908 18.4732 15.2908H24.6141V2.38702C24.6141 1.8688 24.7696 1.42831 25.0805 1.06556C25.4433 0.702802 25.9097 0.521423 26.4797 0.521423H32.7761C33.2944 0.521423 33.7348 0.702802 34.0976 1.06556C34.4604 1.42831 34.6417 1.8688 34.6417 2.38702V15.2908H44.3584C44.8766 15.2908 45.3171 15.4721 45.6799 15.8349C46.0426 16.1976 46.224 16.6381 46.224 17.1564V21.6649C46.224 22.1831 46.0426 22.6236 45.6799 22.9864C45.3171 23.3491 44.8766 23.5305 44.3584 23.5305H34.6417V40.3986C34.6417 42.5233 35.0045 44.1816 35.73 45.3736C36.5073 46.5655 37.8288 47.1614 39.6944 47.1614H45.058C45.5762 47.1614 46.0167 47.3428 46.3795 47.7056C46.7422 48.0683 46.9236 48.5088 46.9236 49.027V53.8465C46.9236 54.3647 46.7422 54.8052 46.3795 55.168C46.0167 55.5307 45.5762 55.7121 45.058 55.7121H38.7616Z" fill="black"/>
<path d="M55.7627 55.7121C55.2445 55.7121 54.804 55.5307 54.4413 55.168C54.0785 54.8052 53.8971 54.3647 53.8971 53.8465V2.38702C53.8971 1.8688 54.0785 1.42831 54.4413 1.06556C54.804 0.702802 55.2445 0.521423 55.7627 0.521423H62.2146C62.7328 0.521423 63.1733 0.702802 63.5361 1.06556C63.8988 1.42831 64.0802 1.8688 64.0802 2.38702V53.8465C64.0802 54.3647 63.8988 54.8052 63.5361 55.168C63.1733 55.5307 62.7328 55.7121 62.2146 55.7121H55.7627Z" fill="black"/>
<path d="M94.0203 55.7121C93.5021 55.7121 93.0616 55.5307 92.6988 55.168C92.3361 54.8052 92.1547 54.3647 92.1547 53.8465V17.1564C92.1547 16.6381 92.3361 16.1976 92.6988 15.8349C93.0616 15.4721 93.5021 15.2908 94.0203 15.2908H100.083C100.602 15.2908 101.042 15.4721 101.405 15.8349C101.768 16.1976 101.949 16.6381 101.949 17.1564V19.7993C103.037 18.3483 104.488 17.1304 106.302 16.1458C108.168 15.1094 110.37 14.5652 112.909 14.5134C118.817 14.4098 122.937 16.7159 125.269 21.4317C126.461 19.3588 128.171 17.7005 130.399 16.4568C132.68 15.1612 135.193 14.5134 137.94 14.5134C140.634 14.5134 143.07 15.1353 145.247 16.379C147.475 17.6228 149.211 19.5143 150.455 22.0536C151.75 24.541 152.398 27.7022 152.398 31.537V53.8465C152.398 54.3647 152.217 54.8052 151.854 55.168C151.491 55.5307 151.051 55.7121 150.532 55.7121H144.158C143.64 55.7121 143.2 55.5307 142.837 55.168C142.474 54.8052 142.293 54.3647 142.293 53.8465V32.1589C142.293 29.8269 141.956 27.9872 141.282 26.6398C140.608 25.2406 139.702 24.256 138.561 23.686C137.421 23.1159 136.152 22.8309 134.753 22.8309C133.612 22.8309 132.472 23.1159 131.332 23.686C130.192 24.256 129.259 25.2406 128.534 26.6398C127.808 27.9872 127.446 29.8269 127.446 32.1589V53.8465C127.446 54.3647 127.264 54.8052 126.901 55.168C126.539 55.5307 126.098 55.7121 125.58 55.7121H119.206C118.636 55.7121 118.169 55.5307 117.807 55.168C117.496 54.8052 117.34 54.3647 117.34 53.8465V32.1589C117.34 29.8269 116.978 27.9872 116.252 26.6398C115.527 25.2406 114.594 24.256 113.454 23.686C112.314 23.1159 111.096 22.8309 109.8 22.8309C108.608 22.8309 107.442 23.1418 106.302 23.7637C105.162 24.3337 104.229 25.2924 103.504 26.6398C102.778 27.9872 102.415 29.8269 102.415 32.1589V53.8465C102.415 54.3647 102.234 54.8052 101.871 55.168C101.509 55.5307 101.068 55.7121 100.55 55.7121H94.0203Z" fill="black"/>
<path d="M180.109 55.7121C176.999 55.7121 174.382 55.168 172.258 54.0797C170.133 52.9914 168.552 51.3849 167.516 49.2602C166.479 47.0837 165.961 44.3889 165.961 41.176V23.5305H159.82C159.302 23.5305 158.862 23.3491 158.499 22.9864C158.136 22.6236 157.955 22.1831 157.955 21.6649V17.1564C157.955 16.6381 158.136 16.1976 158.499 15.8349C158.862 15.4721 159.302 15.2908 159.82 15.2908H165.961V2.38702C165.961 1.8688 166.117 1.42831 166.428 1.06556C166.79 0.702802 167.257 0.521423 167.827 0.521423H174.123C174.641 0.521423 175.082 0.702802 175.445 1.06556C175.807 1.42831 175.989 1.8688 175.989 2.38702V15.2908H185.706C186.224 15.2908 186.664 15.4721 187.027 15.8349C187.39 16.1976 187.571 16.6381 187.571 17.1564V21.6649C187.571 22.1831 187.39 22.6236 187.027 22.9864C186.664 23.3491 186.224 23.5305 185.706 23.5305H175.989V40.3986C175.989 42.5233 176.352 44.1816 177.077 45.3736C177.854 46.5655 179.176 47.1614 181.042 47.1614H186.405C186.923 47.1614 187.364 47.3428 187.727 47.7056C188.089 48.0683 188.271 48.5088 188.271 49.027V53.8465C188.271 54.3647 188.089 54.8052 187.727 55.168C187.364 55.5307 186.923 55.7121 186.405 55.7121H180.109Z" fill="black"/>
<path d="M197.032 55.7121C196.514 55.7121 196.073 55.5307 195.711 55.168C195.348 54.8052 195.167 54.3647 195.167 53.8465V17.1564C195.167 16.6381 195.348 16.1976 195.711 15.8349C196.073 15.4721 196.514 15.2908 197.032 15.2908H203.406C203.924 15.2908 204.365 15.4721 204.728 15.8349C205.09 16.1976 205.272 16.6381 205.272 17.1564V20.3434C206.619 18.6851 208.329 17.3118 210.402 16.2236C212.527 15.0835 215.144 14.5134 218.253 14.5134C221.414 14.5134 224.161 15.2389 226.493 16.69C228.825 18.0892 230.613 20.0843 231.857 22.6754C233.152 25.2665 233.8 28.3759 233.8 32.0034V53.8465C233.8 54.3647 233.619 54.8052 233.256 55.168C232.893 55.5307 232.453 55.7121 231.934 55.7121H225.094C224.576 55.7121 224.135 55.5307 223.772 55.168C223.41 54.8052 223.228 54.3647 223.228 53.8465V32.4698C223.228 29.4641 222.477 27.1062 220.974 25.3961C219.523 23.686 217.398 22.8309 214.6 22.8309C211.905 22.8309 209.754 23.686 208.148 25.3961C206.542 27.1062 205.738 29.4641 205.738 32.4698V53.8465C205.738 54.3647 205.557 54.8052 205.194 55.168C204.831 55.5307 204.391 55.7121 203.873 55.7121H197.032Z" fill="black"/>
<path d="M76.6149 49.2029C77.3341 48.1386 78.9013 48.1386 79.6205 49.2029L90.3109 65.0226C91.1249 66.2271 90.2619 67.8519 88.808 67.8519H67.4273C65.9735 67.8519 65.1105 66.2271 65.9245 65.0226L76.6149 49.2029Z" fill="#DAB108"/>
</g>
</svg>
